<?xml version="1.0" encoding="UTF-8" standalone="no"?><svg xmlns="http://www.w3.org/2000/svg" xmlns:xlink="http://www.w3.org/1999/xlink" contentScriptType="application/ecmascript" contentStyleType="text/css" height="683px" preserveAspectRatio="none" style="width:638px;height:683px;" version="1.1" viewBox="0 0 638 683" width="638px" zoomAndPan="magnify"><defs><filter height="300%" id="fyt0fmb" width="300%" x="-1" y="-1"><feGaussianBlur result="blurOut" stdDeviation="2.0"/><feColorMatrix in="blurOut" result="blurOut2" type="matrix" values="0 0 0 0 0 0 0 0 0 0 0 0 0 0 0 0 0 0 .4 0"/><feOffset dx="4.0" dy="4.0" in="blurOut2" result="blurOut3"/><feBlend in="SourceGraphic" in2="blurOut3" mode="normal"/></filter></defs><g><!--class MovieDL--><rect fill="#FEFECE" filter="url(#fyt0fmb)" height="137.6328" style="stroke: #A80036; stroke-width: 1.5;" width="137" x="229" y="8"/><ellipse cx="268.75" cy="24" fill="#ADD1B2" rx="11" ry="11" style="stroke: #A80036; stroke-width: 1.0;"/><path d="M271.7188,29.6406 Q271.1406,29.9375 270.5,30.0859 Q269.8594,30.2344 269.1563,30.2344 Q266.6563,30.2344 265.3359,28.5859 Q264.0156,26.9375 264.0156,23.8125 Q264.0156,20.6875 265.3359,19.0313 Q266.6563,17.375 269.1563,17.375 Q269.8594,17.375 270.5078,17.5313 Q271.1563,17.6875 271.7188,17.9844 L271.7188,20.7031 Q271.0938,20.125 270.5,19.8516 Q269.9063,19.5781 269.2813,19.5781 Q267.9375,19.5781 267.25,20.6484 Q266.5625,21.7188 266.5625,23.8125 Q266.5625,25.9063 267.25,26.9766 Q267.9375,28.0469 269.2813,28.0469 Q269.9063,28.0469 270.5,27.7734 Q271.0938,27.5 271.7188,26.9219 L271.7188,29.6406 Z "/><text fill="#000000" font-family="sans-serif" font-size="12" lengthAdjust="spacingAndGlyphs" textLength="50" x="288.25" y="28.1543">MovieDL</text><line style="stroke: #A80036; stroke-width: 1.5;" x1="230" x2="365" y1="40" y2="40"/><text fill="#000000" font-family="sans-serif" font-size="11" lengthAdjust="spacingAndGlyphs" textLength="55" x="235" y="54.2104">URL urls[]</text><text fill="#000000" font-family="sans-serif" font-size="11" lengthAdjust="spacingAndGlyphs" textLength="125" x="235" y="67.0151">ThreadMgr threadmgr</text><text fill="#000000" font-family="sans-serif" font-size="11" lengthAdjust="spacingAndGlyphs" textLength="100" x="235" y="79.8198">DiskUtils diskutils</text><text fill="#000000" font-family="sans-serif" font-size="11" lengthAdjust="spacingAndGlyphs" textLength="41" x="235" y="92.6245">Log log</text><line style="stroke: #A80036; stroke-width: 1.5;" x1="230" x2="365" y1="99.2188" y2="99.2188"/><text fill="#000000" font-family="sans-serif" font-size="11" lengthAdjust="spacingAndGlyphs" textLength="68" x="235" y="113.4292">show_help()</text><text fill="#000000" font-family="sans-serif" font-size="11" lengthAdjust="spacingAndGlyphs" textLength="67" x="235" y="126.2339">read_cmdl()</text><text fill="#000000" font-family="sans-serif" font-size="11" lengthAdjust="spacingAndGlyphs" textLength="63" x="235" y="139.0386">shutdown()</text><!--class DiskUtils--><rect fill="#FEFECE" filter="url(#fyt0fmb)" height="86.4141" style="stroke: #A80036; stroke-width: 1.5;" width="125" x="6" y="588"/><ellipse cx="39" cy="604" fill="#ADD1B2" rx="11" ry="11" style="stroke: #A80036; stroke-width: 1.0;"/><path d="M41.9688,609.6406 Q41.3906,609.9375 40.75,610.0859 Q40.1094,610.2344 39.4063,610.2344 Q36.9063,610.2344 35.5859,608.5859 Q34.2656,606.9375 34.2656,603.8125 Q34.2656,600.6875 35.5859,599.0313 Q36.9063,597.375 39.4063,597.375 Q40.1094,597.375 40.7578,597.5313 Q41.4063,597.6875 41.9688,597.9844 L41.9688,600.7031 Q41.3438,600.125 40.75,599.8516 Q40.1563,599.5781 39.5313,599.5781 Q38.1875,599.5781 37.5,600.6484 Q36.8125,601.7188 36.8125,603.8125 Q36.8125,605.9063 37.5,606.9766 Q38.1875,608.0469 39.5313,608.0469 Q40.1563,608.0469 40.75,607.7734 Q41.3438,607.5 41.9688,606.9219 L41.9688,609.6406 Z "/><text fill="#000000" font-family="sans-serif" font-size="12" lengthAdjust="spacingAndGlyphs" textLength="53" x="57" y="608.1543">DiskUtils</text><line style="stroke: #A80036; stroke-width: 1.5;" x1="7" x2="130" y1="620" y2="620"/><text fill="#000000" font-family="sans-serif" font-size="11" lengthAdjust="spacingAndGlyphs" textLength="88" x="12" y="634.2104">string input_file</text><text fill="#000000" font-family="sans-serif" font-size="11" lengthAdjust="spacingAndGlyphs" textLength="113" x="12" y="647.0151">String download_dir</text><line style="stroke: #A80036; stroke-width: 1.5;" x1="7" x2="130" y1="653.6094" y2="653.6094"/><text fill="#000000" font-family="sans-serif" font-size="11" lengthAdjust="spacingAndGlyphs" textLength="103" x="12" y="667.8198">check_diskspace()</text><!--class Log--><rect fill="#FEFECE" filter="url(#fyt0fmb)" height="86.4141" style="stroke: #A80036; stroke-width: 1.5;" width="114" x="386.5" y="588"/><ellipse cx="428.5" cy="604" fill="#ADD1B2" rx="11" ry="11" style="stroke: #A80036; stroke-width: 1.0;"/><path d="M431.4688,609.6406 Q430.8906,609.9375 430.25,610.0859 Q429.6094,610.2344 428.9063,610.2344 Q426.4063,610.2344 425.0859,608.5859 Q423.7656,606.9375 423.7656,603.8125 Q423.7656,600.6875 425.0859,599.0313 Q426.4063,597.375 428.9063,597.375 Q429.6094,597.375 430.2578,597.5313 Q430.9063,597.6875 431.4688,597.9844 L431.4688,600.7031 Q430.8438,600.125 430.25,599.8516 Q429.6563,599.5781 429.0313,599.5781 Q427.6875,599.5781 427,600.6484 Q426.3125,601.7188 426.3125,603.8125 Q426.3125,605.9063 427,606.9766 Q427.6875,608.0469 429.0313,608.0469 Q429.6563,608.0469 430.25,607.7734 Q430.8438,607.5 431.4688,606.9219 L431.4688,609.6406 Z "/><text fill="#000000" font-family="sans-serif" font-size="12" lengthAdjust="spacingAndGlyphs" textLength="22" x="448.5" y="608.1543">Log</text><line style="stroke: #A80036; stroke-width: 1.5;" x1="387.5" x2="499.5" y1="620" y2="620"/><text fill="#000000" font-family="sans-serif" font-size="11" lengthAdjust="spacingAndGlyphs" textLength="85" x="392.5" y="634.2104">int debug_level</text><text fill="#000000" font-family="sans-serif" font-size="11" lengthAdjust="spacingAndGlyphs" textLength="102" x="392.5" y="647.0151">string log_filepath</text><line style="stroke: #A80036; stroke-width: 1.5;" x1="387.5" x2="499.5" y1="653.6094" y2="653.6094"/><text fill="#000000" font-family="sans-serif" font-size="11" lengthAdjust="spacingAndGlyphs" textLength="67" x="392.5" y="667.8198">write_msg()</text><!--class URL--><rect fill="#FEFECE" filter="url(#fyt0fmb)" height="112.0234" style="stroke: #A80036; stroke-width: 1.5;" width="98" x="140.5" y="399"/><ellipse cx="174.85" cy="415" fill="#ADD1B2" rx="11" ry="11" style="stroke: #A80036; stroke-width: 1.0;"/><path d="M177.8188,420.6406 Q177.2406,420.9375 176.6,421.0859 Q175.9594,421.2344 175.2563,421.2344 Q172.7563,421.2344 171.4359,419.5859 Q170.1156,417.9375 170.1156,414.8125 Q170.1156,411.6875 171.4359,410.0313 Q172.7563,408.375 175.2563,408.375 Q175.9594,408.375 176.6078,408.5313 Q177.2563,408.6875 177.8188,408.9844 L177.8188,411.7031 Q177.1938,411.125 176.6,410.8516 Q176.0063,410.5781 175.3813,410.5781 Q174.0375,410.5781 173.35,411.6484 Q172.6625,412.7188 172.6625,414.8125 Q172.6625,416.9063 173.35,417.9766 Q174.0375,419.0469 175.3813,419.0469 Q176.0063,419.0469 176.6,418.7734 Q177.1938,418.5 177.8188,417.9219 L177.8188,420.6406 Z "/><text fill="#000000" font-family="sans-serif" font-size="12" lengthAdjust="spacingAndGlyphs" textLength="23" x="193.15" y="419.1543">URL</text><line style="stroke: #A80036; stroke-width: 1.5;" x1="141.5" x2="237.5" y1="431" y2="431"/><text fill="#000000" font-family="sans-serif" font-size="11" lengthAdjust="spacingAndGlyphs" textLength="52" x="146.5" y="445.2104">string url</text><line style="stroke: #A80036; stroke-width: 1.5;" x1="141.5" x2="237.5" y1="451.8047" y2="451.8047"/><text fill="#000000" font-family="sans-serif" font-size="11" lengthAdjust="spacingAndGlyphs" textLength="86" x="146.5" y="466.0151">validate_input()</text><text fill="#000000" font-family="sans-serif" font-size="11" lengthAdjust="spacingAndGlyphs" textLength="41" x="146.5" y="478.8198">follow()</text><text fill="#000000" font-family="sans-serif" font-size="11" lengthAdjust="spacingAndGlyphs" textLength="82" x="146.5" y="491.6245">chunk_report()</text><text fill="#000000" font-family="sans-serif" font-size="11" lengthAdjust="spacingAndGlyphs" textLength="73" x="146.5" y="504.4292">chunk_read()</text><!--class ThreadMgr--><rect fill="#FEFECE" filter="url(#fyt0fmb)" height="99.2188" style="stroke: #A80036; stroke-width: 1.5;" width="104" x="338.5" y="223"/><ellipse cx="355.75" cy="239" fill="#ADD1B2" rx="11" ry="11" style="stroke: #A80036; stroke-width: 1.0;"/><path d="M358.7188,244.6406 Q358.1406,244.9375 357.5,245.0859 Q356.8594,245.2344 356.1563,245.2344 Q353.6563,245.2344 352.3359,243.5859 Q351.0156,241.9375 351.0156,238.8125 Q351.0156,235.6875 352.3359,234.0313 Q353.6563,232.375 356.1563,232.375 Q356.8594,232.375 357.5078,232.5313 Q358.1563,232.6875 358.7188,232.9844 L358.7188,235.7031 Q358.0938,235.125 357.5,234.8516 Q356.9063,234.5781 356.2813,234.5781 Q354.9375,234.5781 354.25,235.6484 Q353.5625,236.7188 353.5625,238.8125 Q353.5625,240.9063 354.25,241.9766 Q354.9375,243.0469 356.2813,243.0469 Q356.9063,243.0469 357.5,242.7734 Q358.0938,242.5 358.7188,241.9219 L358.7188,244.6406 Z "/><text fill="#000000" font-family="sans-serif" font-size="12" lengthAdjust="spacingAndGlyphs" textLength="67" x="370.25" y="243.1543">ThreadMgr</text><line style="stroke: #A80036; stroke-width: 1.5;" x1="339.5" x2="441.5" y1="255" y2="255"/><text fill="#000000" font-family="sans-serif" font-size="11" lengthAdjust="spacingAndGlyphs" textLength="92" x="344.5" y="269.2104">int max_threads</text><line style="stroke: #A80036; stroke-width: 1.5;" x1="339.5" x2="441.5" y1="275.8047" y2="275.8047"/><text fill="#000000" font-family="sans-serif" font-size="11" lengthAdjust="spacingAndGlyphs" textLength="44" x="344.5" y="290.0151">create()</text><text fill="#000000" font-family="sans-serif" font-size="11" lengthAdjust="spacingAndGlyphs" textLength="35" x="344.5" y="302.8198">start()</text><text fill="#000000" font-family="sans-serif" font-size="11" lengthAdjust="spacingAndGlyphs" textLength="33" x="344.5" y="315.6245">stop()</text><!--class OutputMgr--><rect fill="#FEFECE" filter="url(#fyt0fmb)" height="60.8047" style="stroke: #A80036; stroke-width: 1.5;" width="98" x="275.5" y="424.5"/><ellipse cx="290.5" cy="440.5" fill="#ADD1B2" rx="11" ry="11" style="stroke: #A80036; stroke-width: 1.0;"/><path d="M293.4688,446.1406 Q292.8906,446.4375 292.25,446.5859 Q291.6094,446.7344 290.9063,446.7344 Q288.4063,446.7344 287.0859,445.0859 Q285.7656,443.4375 285.7656,440.3125 Q285.7656,437.1875 287.0859,435.5313 Q288.4063,433.875 290.9063,433.875 Q291.6094,433.875 292.2578,434.0313 Q292.9063,434.1875 293.4688,434.4844 L293.4688,437.2031 Q292.8438,436.625 292.25,436.3516 Q291.6563,436.0781 291.0313,436.0781 Q289.6875,436.0781 289,437.1484 Q288.3125,438.2188 288.3125,440.3125 Q288.3125,442.4063 289,443.4766 Q289.6875,444.5469 291.0313,444.5469 Q291.6563,444.5469 292.25,444.2734 Q292.8438,444 293.4688,443.4219 L293.4688,446.1406 Z "/><text fill="#000000" font-family="sans-serif" font-size="12" lengthAdjust="spacingAndGlyphs" textLength="66" x="304.5" y="444.6543">OutputMgr</text><line style="stroke: #A80036; stroke-width: 1.5;" x1="276.5" x2="372.5" y1="456.5" y2="456.5"/><line style="stroke: #A80036; stroke-width: 1.5;" x1="276.5" x2="372.5" y1="464.5" y2="464.5"/><text fill="#000000" font-family="sans-serif" font-size="11" lengthAdjust="spacingAndGlyphs" textLength="75" x="281.5" y="478.7104">write_chunk()</text><path d="M224.868,156.798 C210.376,176.985 197.244,199.639 189.5,223 C170.382,280.672 173.892,350.985 179.943,398.78 " fill="none" style="stroke: #A80036; stroke-width: 1.0;"/><polygon fill="#A80036" points="232.791,146.162,225.9989,148.5844,225.6227,155.7857,232.4147,153.3633,232.791,146.162" style="stroke: #A80036; stroke-width: 1.0;"/><text fill="#000000" font-family="sans-serif" font-size="13" lengthAdjust="spacingAndGlyphs" textLength="54" x="190.5" y="277.0669">contains</text><text fill="#000000" font-family="sans-serif" font-size="13" lengthAdjust="spacingAndGlyphs" textLength="8" x="218.0275" y="165.7999">1</text><text fill="#000000" font-family="sans-serif" font-size="13" lengthAdjust="spacingAndGlyphs" textLength="36" x="140.5845" y="388.0877">many</text><path d="M219.58,149.678 C211.476,158.269 203.614,167.142 196.5,176 C181.13,195.137 178.789,201.205 167.5,223 C138.833,278.343 129.724,292.1 112.5,352 C89.0034,433.713 77.1206,532.777 71.9189,587.8554 " fill="none" style="stroke: #A80036; stroke-width: 1.0;"/><polygon fill="#A80036" points="228.804,140.114,221.7596,141.6554,220.4731,148.7509,227.5175,147.2094,228.804,140.114" style="stroke: #A80036; stroke-width: 1.0;"/><text fill="#000000" font-family="sans-serif" font-size="13" lengthAdjust="spacingAndGlyphs" textLength="54" x="113.5" y="365.0669">contains</text><text fill="#000000" font-family="sans-serif" font-size="13" lengthAdjust="spacingAndGlyphs" textLength="8" x="212.8529" y="143.291">1</text><text fill="#000000" font-family="sans-serif" font-size="13" lengthAdjust="spacingAndGlyphs" textLength="8" x="63.8263" y="576.8279">1</text><path d="M376.646,129.258 C407.783,153.739 440.558,185.837 459.5,223 C518.078,337.929 521.884,384.731 495.5,511 C489.92,537.704 477.998,565.749 466.976,587.9025 " fill="none" style="stroke: #A80036; stroke-width: 1.0;"/><polygon fill="#A80036" points="366.172,121.252,368.51,128.0736,375.7061,128.5391,373.3681,121.7175,366.172,121.252" style="stroke: #A80036; stroke-width: 1.0;"/><text fill="#000000" font-family="sans-serif" font-size="13" lengthAdjust="spacingAndGlyphs" textLength="54" x="511.5" y="365.0669">contains</text><text fill="#000000" font-family="sans-serif" font-size="13" lengthAdjust="spacingAndGlyphs" textLength="8" x="374.1205" y="122.366">1</text><text fill="#000000" font-family="sans-serif" font-size="13" lengthAdjust="spacingAndGlyphs" textLength="8" x="462.08" y="576.8824">1</text><path d="M366.258,114.147 C396.347,131.255 431.354,152.969 460.5,176 C533.624,233.782 552.115,261.53 574.5,352 C597.527,445.066 561.978,477.12 510.5,558 C503.899,568.371 495.711,578.6042 487.351,587.956 " fill="none" style="stroke: #A80036; stroke-width: 1.0; stroke-dasharray: 7.0,7.0;"/><text fill="#000000" font-family="sans-serif" font-size="13" lengthAdjust="spacingAndGlyphs" textLength="59" x="578.5" y="365.0669">message</text><path d="M336.061,158.233 C346.582,180.122 357.661,203.174 367.058,222.726 " fill="none" style="stroke: #A80036; stroke-width: 1.0;"/><polygon fill="#A80036" points="330.288,146.221,329.2819,153.3616,335.4862,157.0367,336.4923,149.8961,330.288,146.221" style="stroke: #A80036; stroke-width: 1.0;"/><text fill="#000000" font-family="sans-serif" font-size="13" lengthAdjust="spacingAndGlyphs" textLength="54" x="353.5" y="189.0669">contains</text><text fill="#000000" font-family="sans-serif" font-size="13" lengthAdjust="spacingAndGlyphs" textLength="8" x="325.0319" y="165.6242">1</text><text fill="#000000" font-family="sans-serif" font-size="13" lengthAdjust="spacingAndGlyphs" textLength="8" x="355.3705" y="212.0909">1</text><path d="M270.651,158.983 C255.173,218.358 242.683,300.26 264.5,369 C270.948,389.316 284.2,408.962 296.613,424.24 " fill="none" style="stroke: #A80036; stroke-width: 1.0;"/><polygon fill="#A80036" points="274.094,146.29,268.663,151.0338,270.953,157.8716,276.384,153.1278,274.094,146.29" style="stroke: #A80036; stroke-width: 1.0;"/><text fill="#000000" font-family="sans-serif" font-size="13" lengthAdjust="spacingAndGlyphs" textLength="54" x="258.5" y="277.0669">contains</text><text fill="#000000" font-family="sans-serif" font-size="13" lengthAdjust="spacingAndGlyphs" textLength="8" x="263.4819" y="165.6998">1</text><text fill="#000000" font-family="sans-serif" font-size="13" lengthAdjust="spacingAndGlyphs" textLength="8" x="282.0363" y="413.4496">1</text><path d="M338.296,311.934 C322.275,324.292 304.835,338.331 289.5,352 C272.283,367.346 254.378,385.003 238.557,401.267 " fill="none" style="stroke: #A80036; stroke-width: 1.0; stroke-dasharray: 7.0,7.0;"/><text fill="#000000" font-family="sans-serif" font-size="13" lengthAdjust="spacingAndGlyphs" textLength="58" x="290.5" y="365.0669">executes</text><path d="M372.639,322.346 C360.728,354.921 345.458,396.683 335.345,424.339 " fill="none" style="stroke: #A80036; stroke-width: 1.0; stroke-dasharray: 7.0,7.0;"/><text fill="#000000" font-family="sans-serif" font-size="13" lengthAdjust="spacingAndGlyphs" textLength="28" x="362.5" y="365.0669">calls</text><path d="M151.215,511.055 C133.906,535.946 113.779,564.888 97.7136,587.9904 " fill="none" style="stroke: #A80036; stroke-width: 1.0; stroke-dasharray: 7.0,7.0;"/><text fill="#000000" font-family="sans-serif" font-size="13" lengthAdjust="spacingAndGlyphs" textLength="30" x="130.5" y="554.0669">uses</text><path d="M397.758,322.322 C408.22,392.689 427.361,521.441 437.237,587.8712 " fill="none" style="stroke: #A80036; stroke-width: 1.0; stroke-dasharray: 7.0,7.0;"/><text fill="#000000" font-family="sans-serif" font-size="13" lengthAdjust="spacingAndGlyphs" textLength="59" x="427.5" y="459.5669">message</text><path d="M329.14,485.653 C333.562,507.136 341.8,536.127 356.5,558 C364.593,570.042 375.276,581.1377 386.377,590.8288 " fill="none" style="stroke: #A80036; stroke-width: 1.0; stroke-dasharray: 7.0,7.0;"/><text fill="#000000" font-family="sans-serif" font-size="13" lengthAdjust="spacingAndGlyphs" textLength="59" x="357.5" y="554.0669">message</text><path d="M230.47,511.114 C244.676,527.678 261.572,544.908 279.5,558 C311.895,581.6567 353.285,599.7543 386.379,611.8883 " fill="none" style="stroke: #A80036; stroke-width: 1.0; stroke-dasharray: 7.0,7.0;"/><text fill="#000000" font-family="sans-serif" font-size="13" lengthAdjust="spacingAndGlyphs" textLength="59" x="280.5" y="554.0669">message</text></g></svg>